<?xml version="1.0" encoding="utf-8"?>
<!-- Generator: Adobe Illustrator 19.0.1, SVG Export Plug-In . SVG Version: 6.00 Build 0)  -->
<svg version="1.1" id="Layer_1" xmlns="http://www.w3.org/2000/svg" xmlns:xlink="http://www.w3.org/1999/xlink" x="0px" y="0px"
	 viewBox="0 0 400 200" style="enable-background:new 0 0 400 200;" xml:space="preserve">
<style type="text/css">
	.st0{fill:#F9FAFA;}
	.st1{fill:#F9FAFA;stroke:#C1CBD4;stroke-width:4;stroke-linecap:round;stroke-linejoin:round;stroke-miterlimit:10;}
	.st2{fill:none;stroke:#C1CBD4;stroke-width:4;stroke-linecap:round;stroke-linejoin:round;stroke-miterlimit:10;}
	.st3{fill:none;stroke:#F1F3F5;stroke-width:4;stroke-linecap:round;stroke-linejoin:round;stroke-miterlimit:10;}
	.st4{fill:#FFFFFF;stroke:#C1CBD4;stroke-width:4;stroke-linecap:round;stroke-linejoin:round;stroke-miterlimit:10;}
	.st5{fill:none;stroke:#F1F3F5;stroke-width:4;stroke-linecap:round;stroke-linejoin:round;}
	.st6{fill:none;stroke:#F1F3F5;stroke-width:4;stroke-linecap:round;stroke-linejoin:round;stroke-dasharray:7.8673,7.8673;}
	.st7{fill:none;stroke:#FFFFFF;stroke-width:4;stroke-linecap:round;stroke-linejoin:round;stroke-miterlimit:10;}
</style>
<line class="st2" x1="154" y1="198" x2="234" y2="198"/>
<circle class="st3" cx="109" cy="127" r="1"/>
<circle class="st3" cx="116" cy="99" r="1"/>
<circle class="st3" cx="78" cy="119" r="1"/>
<line class="st2" x1="242" y1="198" x2="250" y2="198"/>
<line class="st2" x1="142" y1="198" x2="146" y2="198"/>
<line class="st3" x1="109" y1="149" x2="106.5" y2="154.7"/>
<line class="st3" x1="98" y1="105" x2="88" y2="101"/>
<line class="st3" x1="91" y1="60" x2="85.5" y2="64.4"/>
<line class="st2" x1="29" y1="142" x2="2" y2="142"/>
<line class="st2" x1="270" y1="142" x2="353" y2="142"/>
<line class="st2" x1="310" y1="142" x2="310" y2="110"/>
<path class="st2" d="M310,130h4c2.2,0,4-1.8,4-4v-8"/>
<path class="st2" d="M310,124h-4c-2.2,0-4-1.8-4-4v-4"/>
<line class="st2" x1="398" y1="142" x2="363" y2="142"/>
<path class="st1" d="M375,161h-12v-25c0-1.1,0.9-2,2-2h4c6.6,0,12-5.4,12-12V98.8c0-2.3-2-4.2-4.4-4c-2.1,0.2-3.6,2.1-3.6,4.2v21
	c0,3.3-2.7,6-6,6h-2c-1.1,0-2-0.9-2-2V75.2c0-2.6-1.9-4.9-4.5-5.2c-3-0.3-5.5,2.1-5.5,5v38c0,1.1-0.9,2-2,2h-2c-3.3,0-6-2.7-6-6
	V98.2c0-2.1-1.5-4-3.6-4.2c-2.4-0.2-4.4,1.6-4.4,4v13c0,6.6,5.4,12,12,12h4c1.1,0,2,0.9,2,2v36h-6"/>
<path class="st1" d="M47,150h-8v-31c0-1.1,0.9-2,2-2h4c6.6,0,12-5.4,12-12V95c0-2.3-2-4.2-4.4-4c-2.1,0.2-3.6,2.1-3.6,4.2l0,7.8
	c0,3.3-2.7,6-6,6h-2c-1.1,0-2-0.9-2-2V83c0-2.9-2.5-5.3-5.5-5c-2.6,0.2-4.5,2.6-4.5,5.2c0,9.1,0,23.8,0,31.8c0,1.1-0.9,2-2,2
	c-0.6,0-1.3,0-2,0c-3.3,0-6-2.7-6-6l0-1.8c0-2.1-1.5-4-3.6-4.2c-2.4-0.2-4.4,1.6-4.4,4v4c0,6.6,5.4,12,12,12h4c1.1,0,2,0.9,2,2v23
	h-4"/>
<line class="st2" x1="92" y1="142" x2="39" y2="142"/>
<g>
	<g>
		<path class="st2" d="M210.8,12.4h-11.6c-9.9,0-16.3,0.8-25,4"/>
		<path class="st2" d="M129.3,53.4c6.6-11.7,16-21.6,27.3-28.8"/>
		<path class="st2" d="M151.6,156.7c-10.9-8.1-19.7-18.9-25.4-31.5"/>
		<path class="st2" d="M199.2,172.4c0.8,0,1.6,0,2.4,0c8.2-0.2,16.4-1.9,24.1-4.7c3.6-1.3,7-3,10.3-4.9l3.1-1.8"/>
		<path class="st2" d="M275.9,69.7c2.1,7.2,3.3,14.8,3.3,22.7c0,15.1-4.2,29.1-11.4,41.2"/>
		<path class="st2" d="M227.2,17.4c12.4,4.6,23.3,12.2,31.9,22"/>
		<path class="st2" d="M151.7,76.6c1.1-3.3,2.6-6.6,4.4-9.6c1.9-3.3,6.4-3.9,9.3-1.4v0c2.5,2.2,6.4,2,8.6-0.5l6.1-6.8
			c0.9-1,2.2-1.7,3.6-2l15.5-2.4"/>
		<path class="st2" d="M167.8,131.3c-6.9-5.5-11.9-12.5-15-20.2c-2.1-5.3-3.3-10.9-3.6-16.6"/>
		<path class="st2" d="M211.8,140.8c-8.2,2.1-16.9,2.2-25.3,0"/>
		<path class="st2" d="M218.2,46.1c4.3,1.8,8.5,4.2,12.3,7.3c6,4.8,10.5,10.7,13.6,17.1"/>
		<path class="st2" d="M173.6,49.4c7.1-4.2,15.1-6.6,23.2-6.9"/>
		<path class="st2" d="M199.2,77.4c8.3,0,15,6.7,15,15"/>
		<path class="st2" d="M199.2,107.4c-6.6,0-12.1-4.2-14.2-10.1c-1.3-3.8-3.4-7.3-6.3-10l-1-0.9c-1.7-1.6-1.4-4.4,0.5-5.6l8.5-5.4"/>
		<path class="st2" d="M184.2,13.8l3.1,7.5c1.5,3.7-0.6,8-4.5,9l-11.6,3"/>
		<path class="st2" d="M152.7,37.3l5.7-5c2-1.8,5-2.2,7.4-1l0.9,0.5c1.9,1,3.3,2.8,3.6,4.9l0.1,0.7c0.4,2.7-0.9,5.4-3.2,6.8
			l-9.2,5.4c-0.9,0.5-2,0.9-3.1,0.9l-8.8,0.4c-3.5,0.2-6.2,2.9-6.4,6.4l-0.4,9.9"/>
		<path class="st2" d="M145.2,79v-4.2c0-3-2.1-5.7-5-6.5l0,0c-4-1-8,1.7-8.3,5.9l-0.9,9.8"/>
		<path class="st2" d="M219.9,27.4l-5.8-3c-2.4-1.2-3.9-3.8-3.7-6.6l0.6-7.5c0.4-4.4,4.8-7.3,9-5.8l14.6,5.3"/>
		<path class="st2" d="M235.2,28.4l0.2,4.5c0.2,4.6-4.2,8.1-8.6,6.8l0,0c-3.7-1.1-7.6,1.1-8.5,4.9l-3.5,14.8c-0.8,3.5-4.3,5.8-7.9,5
			l-6.2-1.3"/>
		<path class="st2" d="M210.8,45h-6.9c-3.4,0-6.3-2.5-6.7-5.9l-0.1-1c-0.5-4,2.6-7.5,6.7-7.5h4"/>
		<path class="st2" d="M263.8,86.6l-6.7-12.5c-2.2-4.1-7.3-5.9-11.6-4l-3.6,1.6c-3.9,1.8-6.1,6-5.1,10.2l1.3,5.8"/>
		<path class="st2" d="M260.3,59.7l-3.6-5.4c-3.5-5.2-2.1-12.2,3-15.7l0,0c5.1-3.5,12.1-2.2,15.7,2.8l3.1,4.4"/>
		<path class="st2" d="M267.8,48.8l9.5,8.4c4.1,3.6,2.8,10.3-2.4,12.2l-8.4,3"/>
		<line class="st2" x1="232.1" y1="54.8" x2="240.2" y2="54"/>
		<line class="st2" x1="249.9" y1="30.6" x2="244.5" y2="33.4"/>
		<line class="st2" x1="241.8" y1="24.6" x2="250.2" y2="21.7"/>
		<line class="st2" x1="196.9" y1="12.4" x2="201" y2="7"/>
		<line class="st2" x1="187.3" y1="21.3" x2="196.9" y2="22.4"/>
		<line class="st2" x1="185.3" y1="44.4" x2="181.7" y2="39.4"/>
		<line class="st2" x1="180.9" y1="57.6" x2="167.8" y2="57.5"/>
		<line class="st2" x1="156.6" y1="50.2" x2="151.7" y2="58.5"/>
		<line class="st2" x1="148.4" y1="30.6" x2="148" y2="22.4"/>
		<path class="st2" d="M164.5,12.8l5.3,1.4c3,0.8,4.8,4,3.8,7l-1.3,4.3"/>
		<path class="st2" d="M137.9,76.1v4.7c0,6.5,5.2,11.9,11.7,12h0c6.2,0.2,11.4-4.4,12.2-10.5l0.9-7"/>
		<path class="st2" d="M172.6,157.3l-4.3-9.2c-2.8-6-2.4-13,1.2-18.5l2.1-3.3c1.1-1.7,2.7-2.9,4.6-3.5l16.6-5.1"/>
		<path class="st2" d="M176.6,144.5h2.5c3.4,0,6.4-2.3,7.3-5.7v0l1.8-4.8c1.2-3.3,4.2-5.6,7.6-5.9l3.4-0.4"/>
		<path class="st2" d="M259.6,95.9c2.4,6.8-2,14.1-9.1,15.2l-5,0.7c-3.4,0.5-6.9-0.5-9.4-2.8l-5.9-5.3"/>
		<polyline class="st2" points="258.8,105.3 264.5,101.6 273.1,94.5 		"/>
		<path class="st2" d="M207.3,118.4l-4.4-3.6c-1.9-1.6-2.9-3.9-2.7-6.4v0c0.3-3.9,3.4-6.9,7.2-7.1l6.7-0.3"/>
		<path class="st2" d="M214.2,112.1l14.3,3c1.7,0.3,3.2,1.2,4.3,2.5l6.7,7.9c3,3.6,2.1,9-1.9,11.4l-4.5,2.7"/>
		<path class="st2" d="M225.2,150.5h-5.6c-3.9,0-7.2-3-7.6-6.9l-0.9-9.3c-0.4-3.9,2.3-7.5,6.2-8.2l4.7-0.9"/>
		<path class="st2" d="M248.4,134.4l9.4-3.8l4.8,2.2l2.3,0c4.8,0.1,7.2,8.4,4.2,12.1c-0.1,0.1-0.1,0.1-0.2,0.2L257,155"/>
		<polyline class="st2" points="227.2,51 222.5,67.1 223.8,79.9 		"/>
		<path class="st2" d="M187.3,68.9l1.1,0.2c4.5,0.8,8.1,4.2,9.2,8.7v0c1,4.3-0.6,8.9-4.1,11.6l-3.2,2.5"/>
		<path class="st2" d="M250.2,164.2h-7.2c-2.5,0-4.7-1.8-5.3-4.2l-0.6-2.5c-0.6-2.7,0.2-5.5,2-7.5"/>
		<path class="st2" d="M186.5,151.9l3.2,1.4c5.5,2.4,8.9,7.9,8.7,13.9v0c-0.1,1.7-0.4,3.3-1,4.8c-3.5,9.1-17,7.3-18.3-2.3v0"/>
		<path class="st2" d="M187.3,166.9l-4.6-5.8c-2.6-3.2-6.9-4.4-10.7-2.8h0c-2.8,1.1-4.9,3.5-5.6,6.4l-2.8,10.9"/>
		<path class="st2" d="M154.1,170.4l-1-1c-3.7-3.7-3.5-9.7,0.4-13.2l0,0c3-2.6,3.9-6.8,2.3-10.4l-3.4-7.7"/>
		<line class="st2" x1="152.8" y1="111.1" x2="165.7" y2="109.7"/>
		<line class="st2" x1="135.6" y1="141" x2="134" y2="150.5"/>
		<line class="st2" x1="116" y1="77" x2="108" y2="79"/>
		<line class="st2" x1="132" y1="48.8" x2="131.2" y2="40.7"/>
		<line class="st2" x1="279.2" y1="84.6" x2="283.3" y2="87.7"/>
		<line class="st2" x1="275.5" y1="116.2" x2="266.7" y2="116.2"/>
		<line class="st2" x1="227.2" y1="167.1" x2="225.2" y2="173.7"/>
		<line class="st2" x1="214.2" y1="170.9" x2="209.2" y2="166.7"/>
		<line class="st2" x1="199.2" y1="142.4" x2="202.2" y2="136.7"/>
		<line class="st2" x1="158.2" y1="121.1" x2="155.2" y2="124.7"/>
		<line class="st2" x1="180.2" y1="93.7" x2="170.2" y2="101.7"/>
		<line class="st2" x1="136.3" y1="118.4" x2="129.8" y2="112.9"/>
		<line class="st2" x1="277.8" y1="107.4" x2="284" y2="114"/>
	</g>
	<path class="st2" d="M246.2,98.7l-1.3-9.2c-0.4-2.6-2.8-4.3-5.4-3.8l0,0c-3.3,0.7-6.2,2.8-7.7,5.9l-1.6,3.2"/>
	<line class="st2" x1="182.2" y1="119.7" x2="180.2" y2="111.7"/>
	<line class="st2" x1="165.2" y1="167.7" x2="170.2" y2="171.7"/>
	<line class="st2" x1="221" y1="5" x2="224" y2="2"/>
	<line class="st2" x1="253.5" y1="110.7" x2="251.2" y2="120.7"/>
</g>
<line class="st2" x1="256" y1="130" x2="256" y2="136"/>
<line class="st2" x1="262" y1="149" x2="263" y2="156"/>
<line class="st2" x1="262" y1="148" x2="249" y2="145"/>
<line class="st2" x1="381" y1="161" x2="383" y2="161"/>
</svg>
