<?xml version="1.0" encoding="UTF-8"?>
<svg width="30px" height="24px" viewBox="0 0 30 24" version="1.1" xmlns="http://www.w3.org/2000/svg" xmlns:xlink="http://www.w3.org/1999/xlink">
    <!-- Generator: Sketch 48.1 (47250) - http://www.bohemiancoding.com/sketch -->
    <title>“</title>
    <desc>Created with Sketch.</desc>
    <defs></defs>
    <g id="idea" stroke="none" stroke-width="1" fill="none" fill-rule="evenodd" transform="translate(-470.000000, -1759.000000)">
        <g id="CTA" transform="translate(0.000000, 1412.000000)" fill="#3197D6">
            <g id="card" transform="translate(280.000000, 72.000000)">
                <g id="CTA">
                    <g transform="translate(27.000000, 275.000000)">
                        <g id="Group-7" transform="translate(0.000000, 0.000000)">
                            <path d="M176.433073,3.0078125 C175.086712,3.78125387 173.998181,4.44726283 173.167448,5.00585938 C172.336715,5.56445592 171.491671,6.30207875 170.632292,7.21875 C169.830204,8.0781293 169.214325,8.98046402 168.784635,9.92578125 C168.354946,10.8710985 168.054168,12.0885342 167.882292,13.578125 L169.944792,13.578125 C171.720842,13.578125 173.117313,14.0149696 174.134245,14.8886719 C175.151177,15.7623742 175.659635,17.0442624 175.659635,18.734375 C175.659635,19.937506 175.208468,21.0618437 174.30612,22.1074219 C173.403772,23.153 172.164852,23.6757812 170.589323,23.6757812 C168.125769,23.6757812 166.364068,22.8665446 165.304167,21.2480469 C164.244266,19.6295492 163.714323,17.5026173 163.714323,14.8671875 C163.714323,13.005199 164.115361,11.3079504 164.917448,9.77539062 C165.719535,8.24283088 166.693484,6.87500602 167.839323,5.671875 C169.013808,4.44009801 170.259889,3.39453555 171.577604,2.53515625 C172.895319,1.67577695 173.998173,0.973961055 174.886198,0.4296875 L176.433073,3.0078125 Z M192.33151,3.0078125 C190.98515,3.78125387 189.896619,4.44726283 189.065885,5.00585938 C188.235152,5.56445592 187.390108,6.30207875 186.530729,7.21875 C185.699996,8.10677527 185.076955,9.01627139 184.661589,9.94726562 C184.246222,10.8782599 183.952605,12.0885342 183.780729,13.578125 L185.843229,13.578125 C187.61928,13.578125 189.01575,14.0149696 190.032682,14.8886719 C191.049614,15.7623742 191.558073,17.0442624 191.558073,18.734375 C191.558073,19.937506 191.106906,21.0618437 190.204557,22.1074219 C189.302209,23.153 188.063289,23.6757812 186.48776,23.6757812 C184.024206,23.6757812 182.262505,22.8665446 181.202604,21.2480469 C180.142703,19.6295492 179.61276,17.5026173 179.61276,14.8671875 C179.61276,13.005199 180.013798,11.3079504 180.815885,9.77539062 C181.617973,8.24283088 182.591921,6.87500602 183.73776,5.671875 C184.912245,4.44009801 186.158327,3.39453555 187.476042,2.53515625 C188.793757,1.67577695 189.89661,0.973961055 190.784635,0.4296875 L192.33151,3.0078125 Z" id="“"></path>
                        </g>
                    </g>
                </g>
            </g>
        </g>
    </g>
</svg>